<svg xmlns="http://www.w3.org/2000/svg" viewBox="0 0 520 900" role="img" aria-labelledby="title desc">
  <title id="title">Soft character illustration</title>
  <desc id="desc">A stylized girl silhouette with long dark hair and bunny-ear headband.</desc>
  <defs>
    <linearGradient id="hair" x1="0" x2="1" y1="0" y2="1">
      <stop offset="0" stop-color="#1b1530"/>
      <stop offset="1" stop-color="#070711"/>
    </linearGradient>
    <linearGradient id="dress" x1="0" x2="1" y1="0" y2="1">
      <stop offset="0" stop-color="#25133f"/>
      <stop offset="1" stop-color="#06060b"/>
    </linearGradient>
    <linearGradient id="skin" x1="0" x2="0" y1="0" y2="1">
      <stop offset="0" stop-color="#ffe1d3"/>
      <stop offset="1" stop-color="#f2b8ad"/>
    </linearGradient>
    <filter id="shadow" x="-20%" y="-20%" width="140%" height="140%"><feDropShadow dx="0" dy="18" stdDeviation="18" flood-color="#000" flood-opacity="0.35"/></filter>
  </defs>
  <ellipse cx="260" cy="865" rx="145" ry="25" fill="#000" opacity="0.28"/>
  <g filter="url(#shadow)">
    <path d="M205 195 C170 245 155 340 175 445 C190 525 142 612 115 735 C100 800 147 842 220 808 C273 780 321 816 375 790 C432 763 410 680 380 604 C350 530 370 448 356 348 C343 248 305 185 260 178 C240 174 220 180 205 195Z" fill="url(#hair)"/>
    <path d="M205 180 C180 80 175 24 208 8 C242 45 252 112 248 184Z" fill="#101020"/>
    <path d="M304 180 C329 80 336 24 303 8 C269 45 259 112 263 184Z" fill="#101020"/>
    <path d="M223 300 C200 328 194 390 204 438 L315 438 C327 388 318 330 296 300Z" fill="url(#skin)"/>
    <ellipse cx="260" cy="235" rx="74" ry="86" fill="url(#skin)"/>
    <path d="M185 223 C200 140 310 130 338 220 C305 183 250 204 213 174 C207 198 198 214 185 223Z" fill="url(#hair)"/>
    <path d="M208 438 L175 820 L345 820 L314 438Z" fill="url(#dress)"/>
    <path d="M213 438 C230 470 291 470 309 438Z" fill="#fff" opacity="0.88"/>
    <path d="M209 476 L118 642" stroke="#f2b8ad" stroke-width="28" stroke-linecap="round"/>
    <path d="M310 476 L402 642" stroke="#f2b8ad" stroke-width="28" stroke-linecap="round"/>
    <path d="M218 820 L198 882" stroke="#f2b8ad" stroke-width="30" stroke-linecap="round"/>
    <path d="M318 820 L338 882" stroke="#f2b8ad" stroke-width="30" stroke-linecap="round"/>
    <circle cx="232" cy="242" r="5" fill="#25133f"/><circle cx="288" cy="242" r="5" fill="#25133f"/>
    <path d="M244 278 C252 286 270 286 278 278" fill="none" stroke="#a95d70" stroke-width="4" stroke-linecap="round"/>
  </g>
</svg>
